<svg width="492" height="492" viewBox="0 0 492 492" fill="none" xmlns="http://www.w3.org/2000/svg">
<path fill-rule="evenodd" clip-rule="evenodd" d="M2.923 2.923L0 5.846V246V486.154L2.923 489.077L5.846 492H186.489C308.472 492 367.756 491.666 369.055 490.97C373.476 488.605 374 485.453 374 461.23V438.36L383.583 434.014C402.715 425.337 428.86 408.223 449.812 390.66C461.148 381.158 481.752 360.812 487.788 353.16C495.361 343.559 494.005 340.792 470.071 317C445.338 292.416 415.81 270.847 388.957 257.752L374.084 250.5L374.042 167.513L374 84.526L331.737 42.263L289.474 0H147.66H5.846L2.923 2.923ZM276 56.411V92.822L279.077 95.411L282.153 98H318.077H354V170.5C354 221.887 353.685 243 352.917 243C352.321 243 348.383 242.134 344.167 241.075C330.631 237.677 320.867 236.576 304.5 236.605C269.095 236.666 234.071 247.904 197.5 270.936C171.806 287.118 140.386 314.204 122.808 335.326C114.477 345.337 115.556 347.565 140.737 372.351C175.712 406.778 212.355 430.482 250.144 443.126C283.503 454.288 316.66 455.623 347.58 447.049L354 445.269V458.634V472H187H20V246V20H148H276V56.411ZM318.784 78.771C307.105 78.919 296.976 78.821 296.275 78.552C295.295 78.176 295 72.916 295 55.79V33.517L317.51 56.008L340.019 78.5L318.784 78.771ZM45.5 39.938C41.789 41.47 39.545 44.954 39.545 49.182C39.545 52.456 40.149 53.744 42.789 56.102L46.032 59H147.616H249.2L252.727 55.473C255.846 52.354 256.184 51.523 255.658 48.277C255.33 46.259 253.913 43.458 252.508 42.054L249.955 39.5L148.727 39.306C93.052 39.199 46.6 39.484 45.5 39.938ZM42.495 81.414C39.342 84.567 38.473 88.313 40.025 92.059C42.646 98.387 35.637 98 147.5 98C259.363 98 252.354 98.387 254.975 92.059C256.527 88.313 255.658 84.567 252.505 81.414L250.091 79H147.5H44.909L42.495 81.414ZM42.789 120.898C38.412 124.808 38.204 130.658 42.295 134.75L45.045 137.5L185.552 137.76C341.029 138.048 330.65 138.475 333.488 131.683C335.29 127.37 334.357 123.478 330.805 120.489L327.847 118H186.939H46.032L42.789 120.898ZM46.021 158.116C42.332 159.588 40.189 161.865 39.488 165.057C38.674 168.763 41.325 174.371 44.595 175.861C46.426 176.696 84.627 177 187.47 177H327.847L330.805 174.511C334.382 171.5 335.288 167.625 333.445 163.214C330.692 156.625 339.478 156.993 186.782 157.063C98.085 157.104 47.611 157.481 46.021 158.116ZM42.686 199.415C39.368 202.49 38.435 206.222 40.025 210.059C42.668 216.441 31.767 216 187 216C343.547 216 331.683 216.522 333.988 209.535C335.403 205.25 333.247 199.889 329.405 198.139C327.574 197.304 289.264 197 186.099 197H45.292L42.686 199.415ZM45.5 236.935C39.128 239.576 37.442 247.896 42.295 252.75L45.045 255.5H118H190.955L193.705 252.75C197.542 248.912 197.542 243.088 193.705 239.25L190.955 236.5L119.228 236.303C79.777 236.195 46.6 236.479 45.5 236.935ZM334.5 259C375 267.593 417.407 292.767 456.898 331.658L469.297 343.868L464.898 349.123C458.151 357.185 436.962 376.096 422.5 386.963C391.434 410.306 364.044 423.619 333.5 430.219C318.997 433.353 290.813 433.332 276.53 430.177C234.116 420.808 189.668 394.12 150.767 354.666L141.034 344.795L144.734 340.279C146.769 337.796 153.624 331.012 159.967 325.205C202.151 286.584 243.34 264.015 283.5 257.516C296.209 255.46 321.248 256.188 334.5 259ZM43.36 277.46C40.552 279.427 38.626 284.375 39.427 287.566C39.787 288.998 41.253 291.257 42.686 292.585L45.292 295H93.13H140.968L143.931 292.25C148.2 288.288 148.463 282.372 144.545 278.455L142.091 276H93.768C53.018 276 45.118 276.229 43.36 277.46ZM296.247 286.109C282.803 288.349 271.907 294.22 262.256 304.424C240.721 327.192 240.798 361.818 262.435 384.904C276.293 399.691 298.544 406.535 318.1 402.026C345.948 395.606 365.417 369.634 363.762 341.113C362.18 313.839 342.224 291.256 315.499 286.495C306.551 284.901 303.826 284.846 296.247 286.109ZM314.5 306.359C326.071 309.45 335.459 317.118 340.67 327.735C343.256 333.002 343.5 334.45 343.5 344.5C343.5 354.564 343.258 355.993 340.655 361.297C333.047 376.8 315.05 386.222 298.813 383.202C285.777 380.778 275.281 372.796 269.62 361C266.768 355.059 266.5 353.641 266.5 344.5C266.5 335.388 266.775 333.923 269.595 328C277.75 310.871 296.878 301.652 314.5 306.359ZM44.303 316.197C43.094 316.781 41.358 318.833 40.445 320.758C38.344 325.184 39.407 329.469 43.332 332.398C46.037 334.417 47.256 334.5 74.157 334.5H102.165L105.082 331.234C109.07 326.771 109.067 321.914 105.077 317.923L102.154 315L74.327 315.068C56.886 315.11 45.68 315.532 44.303 316.197ZM45.5 354.945C41.795 356.462 39.545 359.952 39.545 364.182C39.545 367.456 40.149 368.744 42.789 371.102L46.032 374H73.065C101.748 374 104.542 373.592 106.97 369.055C109.513 364.304 107.368 357.877 102.46 355.548C99.765 354.269 94.707 354.011 73.349 354.063C59.132 354.098 46.6 354.495 45.5 354.945ZM42.495 396.414C39.342 399.567 38.473 403.313 40.025 407.059C42.562 413.186 40.882 413 93.586 413H141.727L144.252 410.476C148.462 406.265 148.483 400.756 144.304 396.577L141.727 394H93.318H44.909L42.495 396.414ZM42.789 435.898C38.412 439.808 38.204 445.658 42.295 449.75L45.045 452.5H118H190.955L193.705 449.75C197.796 445.658 197.588 439.808 193.211 435.898L189.968 433H118H46.032L42.789 435.898Z" fill="white"/>
</svg>
